<svg version="1.1" id="Layer_1" xmlns="http://www.w3.org/2000/svg" xmlns:xlink="http://www.w3.org/1999/xlink" x="0px" y="0px"
	 width="100%" viewBox="0 0 600 600" enable-background="new 0 0 600 600" xml:space="preserve">

<path fill="#FF7085" opacity="1.000000" stroke="none" 
	d="
M308.902985,36.000191 
	C326.432739,37.325630 343.464233,38.820637 360.520599,39.934700 
	C383.053406,41.406467 405.010529,46.068268 426.635254,52.139057 
	C439.995209,55.889656 453.140900,60.588974 466.055084,65.691719 
	C480.081543,71.233955 493.366791,78.341743 505.881317,86.917534 
	C523.353210,98.890480 537.298035,113.941048 547.774841,132.329056 
	C555.230164,145.413956 560.469788,159.369354 562.800354,174.139572 
	C565.302307,189.996140 564.038086,205.829758 561.338440,221.767532 
	C558.231506,240.109940 553.356445,257.857513 546.908386,275.173340 
	C541.669067,289.242767 535.623047,303.024414 529.596313,316.785461 
	C515.877625,348.109528 498.257355,377.330872 479.817352,405.987335 
	C466.809204,426.202576 452.680084,445.739990 438.276093,465.000153 
	C426.141266,481.226105 413.069519,496.767395 400.059540,512.316467 
	C393.056152,520.686707 386.067810,529.350952 377.725189,536.254150 
	C364.855652,546.903137 352.382599,558.413574 336.937622,565.473694 
	C324.517578,571.151001 312.057373,576.953796 297.769470,576.037598 
	C288.872101,575.467102 280.683075,572.746399 272.551788,569.268799 
	C256.800751,562.532349 243.124664,552.703430 230.245911,541.663940 
	C224.582657,536.809387 219.434845,531.358398 213.860474,526.394409 
	C198.165604,512.418152 184.969467,496.219055 172.204422,479.656769 
	C160.867264,464.947174 149.033310,450.534973 138.814331,435.069305 
	C123.887360,412.478363 109.973648,389.202881 96.094025,365.941101 
	C88.778702,353.680878 82.120903,340.995728 75.751167,328.211029 
	C64.401039,305.430206 54.081604,282.139160 47.079994,257.631622 
	C42.639259,242.087891 38.846912,226.265289 36.168678,210.331589 
	C30.977846,179.449661 39.775326,151.451340 55.382702,124.968201 
	C65.049973,108.564438 78.811539,96.672386 94.091606,85.873878 
	C111.404930,73.638489 130.725143,65.627991 150.254395,58.173557 
	C168.905685,51.054256 188.387161,46.690399 208.208618,43.964909 
	C221.609940,42.122200 234.961929,39.920334 248.364212,38.085232 
	C253.247101,37.416645 258.206818,37.170700 263.139862,37.032574 
	C278.229645,36.610046 293.323486,36.333538 308.902985,36.000191 
M222.846939,131.050369 
	C222.216660,131.761139 221.722260,132.735367 220.934830,133.141464 
	C213.964310,136.736435 212.964493,143.021286 212.975967,149.953064 
	C213.029724,182.450302 213.026718,214.947723 212.952988,247.444885 
	C212.946548,250.284653 212.279175,253.122925 211.908707,256.041473 
	C207.144852,255.659943 203.066711,255.146011 198.980804,255.074097 
	C196.395599,255.028595 193.806015,255.808167 191.205505,255.921234 
	C187.368973,256.088043 183.456238,255.541260 179.688980,256.083496 
	C162.705353,258.527985 150.868698,269.091187 142.073135,282.639740 
	C130.562210,300.371033 130.041885,319.793762 137.016632,339.500031 
	C142.616074,355.320526 153.629105,366.561432 168.842331,372.636383 
	C179.286819,376.807129 190.433289,378.505829 202.305328,377.362518 
	C217.241180,375.924103 229.341293,369.995300 239.526642,359.813171 
	C251.685883,347.657806 257.723633,332.371124 257.875671,315.367249 
	C258.255585,272.874176 258.000519,230.375397 258.000336,187.878906 
	C258.000305,186.073044 258.000336,184.267181 258.000336,182.332336 
	C305.064026,174.406799 351.795135,166.537262 399.334991,158.531525 
	C399.334991,192.289398 399.334991,225.045425 399.334991,257.598785 
	C392.817322,256.420013 386.171143,254.480972 379.443054,254.135147 
	C356.442444,252.952881 336.912323,259.967255 321.838440,278.464203 
	C306.812683,296.902039 305.215363,317.324066 313.094543,338.298492 
	C321.928009,361.813354 341.111542,373.863281 365.285309,376.705048 
	C380.753693,378.523407 396.230927,376.857208 410.083954,367.589142 
	C427.783478,355.747589 438.870361,340.284180 438.947998,318.453430 
	C439.116333,271.124603 439.000122,223.794754 439.000183,176.465332 
	C439.000214,154.800446 439.012848,133.135559 438.993896,111.470695 
	C438.985779,102.168839 431.845428,94.467392 422.751617,95.146690 
	C413.019073,95.873695 403.330597,97.512993 393.698273,99.187622 
	C377.854187,101.942207 362.083923,105.118385 346.258148,107.982162 
	C330.734528,110.791260 315.165527,113.350067 299.643982,116.170288 
	C283.981567,119.016090 268.341583,121.989204 252.713776,125.020172 
	C243.008255,126.902534 233.343704,128.996185 222.846939,131.050369 
M187.239700,402.267090 
	C174.201630,409.132690 171.932846,417.593842 180.931793,429.302216 
	C185.391708,435.104858 191.200012,439.890228 196.521164,445.008057 
	C208.886475,456.900970 223.362350,465.422424 239.116837,472.087769 
	C256.736328,479.542114 275.080536,483.672058 294.097107,483.810272 
	C304.353699,483.884827 314.700989,482.483582 324.870605,480.880463 
	C339.224548,478.617767 352.830048,473.714966 365.270508,466.140259 
	C383.109772,455.278442 398.005707,441.233185 410.362030,424.303528 
	C417.438751,414.607513 415.173096,405.582916 411.443298,400.877960 
	C402.822021,390.002472 387.943207,395.980499 382.141541,403.493011 
	C378.553284,408.139435 375.145447,412.973633 371.143402,417.242462 
	C361.528748,427.498138 349.770355,435.105774 337.139862,440.775879 
	C318.992310,448.922760 299.864868,452.104767 279.780457,449.182373 
	C266.934814,447.313232 254.756592,443.808472 243.267899,437.987213 
	C228.559280,430.534485 215.325867,421.032440 204.178604,408.735718 
	C199.926346,404.044983 194.477325,401.709076 187.239700,402.267090 
z"/>
</svg>